<mxfile host="app.diagrams.net" modified="2021-01-19T03:15:17.780Z" agent="5.0 (Windows NT 10.0; WOW64) AppleWebKit/537.36 (KHTML, like Gecko) Chrome/78.0.3904.108 Safari/537.36" etag="aXa-J7uvwcunXABaz2Aw" version="14.2.3" type="github">
  <diagram id="QVtK0J8Mp7qvg03k-yFJ" name="第 1 页">
    <mxGraphModel dx="2837" dy="33" grid="0" gridSize="10" guides="1" tooltips="1" connect="1" arrows="1" fold="1" page="0" pageScale="1" pageWidth="827" pageHeight="1169" math="0" shadow="0">
      <root>
        <mxCell id="0" />
        <mxCell id="1" parent="0" />
        <mxCell id="DjqIR26yRd3ydewBDKT8-25" value="融易算渠道下单" style="shape=umlFrame;whiteSpace=wrap;html=1;fillColor=#fad7ac;strokeColor=#b46504;dashed=1;shadow=0;dashPattern=1 2;" parent="1" vertex="1">
          <mxGeometry x="-841" y="3263" width="1064" height="976" as="geometry" />
        </mxCell>
        <mxCell id="DjqIR26yRd3ydewBDKT8-85" value="支付通知" style="shape=umlFrame;whiteSpace=wrap;html=1;shadow=0;labelBackgroundColor=none;strokeColor=#b46504;fillColor=#fad7ac;" parent="1" vertex="1">
          <mxGeometry x="-799" y="3954" width="995" height="236" as="geometry" />
        </mxCell>
        <mxCell id="DjqIR26yRd3ydewBDKT8-1" value="&lt;span style=&quot;font-size: 20px&quot;&gt;生成订单&lt;/span&gt;" style="ellipse;whiteSpace=wrap;html=1;fillColor=#d5e8d4;strokeColor=#82b366;" parent="1" vertex="1">
          <mxGeometry x="-93" y="1225" width="120" height="80" as="geometry" />
        </mxCell>
        <mxCell id="DjqIR26yRd3ydewBDKT8-2" value="&lt;font style=&quot;font-size: 20px&quot;&gt;企业主&lt;/font&gt;" style="shape=umlActor;verticalLabelPosition=bottom;verticalAlign=top;html=1;" parent="1" vertex="1">
          <mxGeometry x="32" y="1016" width="30" height="60" as="geometry" />
        </mxCell>
        <mxCell id="DjqIR26yRd3ydewBDKT8-3" value="&lt;span style=&quot;font-size: 20px&quot;&gt;支付订单&lt;/span&gt;" style="ellipse;whiteSpace=wrap;html=1;fillColor=#d5e8d4;strokeColor=#82b366;" parent="1" vertex="1">
          <mxGeometry x="56" y="1227" width="120" height="80" as="geometry" />
        </mxCell>
        <mxCell id="DjqIR26yRd3ydewBDKT8-4" value="" style="endArrow=classic;html=1;" parent="1" target="DjqIR26yRd3ydewBDKT8-1" edge="1">
          <mxGeometry width="50" height="50" relative="1" as="geometry">
            <mxPoint x="21" y="1109" as="sourcePoint" />
            <mxPoint x="-152.5899561254305" y="1242.1348673422435" as="targetPoint" />
          </mxGeometry>
        </mxCell>
        <mxCell id="DjqIR26yRd3ydewBDKT8-5" value="" style="endArrow=classic;html=1;entryX=0.5;entryY=0;entryDx=0;entryDy=0;" parent="1" target="DjqIR26yRd3ydewBDKT8-3" edge="1">
          <mxGeometry width="50" height="50" relative="1" as="geometry">
            <mxPoint x="71" y="1109" as="sourcePoint" />
            <mxPoint x="178.29514153712762" y="1245.357880635454" as="targetPoint" />
          </mxGeometry>
        </mxCell>
        <mxCell id="DjqIR26yRd3ydewBDKT8-6" value="&lt;span style=&quot;font-size: 20px&quot;&gt;app、官网&lt;/span&gt;" style="rounded=0;whiteSpace=wrap;html=1;fillColor=#dae8fc;strokeColor=#6c8ebf;" parent="1" vertex="1">
          <mxGeometry x="-304" y="1008" width="121" height="45" as="geometry" />
        </mxCell>
        <mxCell id="DjqIR26yRd3ydewBDKT8-7" value="&lt;font style=&quot;font-size: 20px&quot;&gt;录入&lt;br&gt;订单&lt;/font&gt;" style="ellipse;whiteSpace=wrap;html=1;fillColor=#d5e8d4;strokeColor=#82b366;" parent="1" vertex="1">
          <mxGeometry x="-304" y="1617" width="120" height="80" as="geometry" />
        </mxCell>
        <mxCell id="DjqIR26yRd3ydewBDKT8-8" value="&lt;span style=&quot;font-size: 20px&quot;&gt;销售&lt;/span&gt;" style="shape=umlActor;verticalLabelPosition=bottom;verticalAlign=top;html=1;" parent="1" vertex="1">
          <mxGeometry x="53" y="1408" width="30" height="60" as="geometry" />
        </mxCell>
        <mxCell id="DjqIR26yRd3ydewBDKT8-9" value="&lt;span style=&quot;font-size: 20px&quot;&gt;新增子订单选择商品&lt;/span&gt;" style="ellipse;whiteSpace=wrap;html=1;fillColor=#d5e8d4;strokeColor=#82b366;" parent="1" vertex="1">
          <mxGeometry x="-163" y="1617" width="120" height="80" as="geometry" />
        </mxCell>
        <mxCell id="DjqIR26yRd3ydewBDKT8-10" value="" style="endArrow=classic;html=1;exitX=0.453;exitY=0.256;exitDx=0;exitDy=0;exitPerimeter=0;" parent="1" target="DjqIR26yRd3ydewBDKT8-7" edge="1">
          <mxGeometry width="50" height="50" relative="1" as="geometry">
            <mxPoint x="31.340000000000146" y="1484.864" as="sourcePoint" />
            <mxPoint x="76" y="1498" as="targetPoint" />
          </mxGeometry>
        </mxCell>
        <mxCell id="DjqIR26yRd3ydewBDKT8-11" value="" style="endArrow=classic;html=1;" parent="1" target="DjqIR26yRd3ydewBDKT8-9" edge="1">
          <mxGeometry width="50" height="50" relative="1" as="geometry">
            <mxPoint x="44" y="1499" as="sourcePoint" />
            <mxPoint x="-68.72276559895408" y="1638.3725918027153" as="targetPoint" />
          </mxGeometry>
        </mxCell>
        <mxCell id="DjqIR26yRd3ydewBDKT8-12" value="&lt;span style=&quot;font-size: 20px&quot;&gt;录入线索&lt;/span&gt;" style="ellipse;whiteSpace=wrap;html=1;fillColor=#d5e8d4;strokeColor=#82b366;" parent="1" vertex="1">
          <mxGeometry x="-24" y="1619" width="120" height="80" as="geometry" />
        </mxCell>
        <mxCell id="DjqIR26yRd3ydewBDKT8-13" value="&lt;span style=&quot;font-size: 20px&quot;&gt;新增商机&lt;/span&gt;" style="ellipse;whiteSpace=wrap;html=1;fillColor=#d5e8d4;strokeColor=#82b366;" parent="1" vertex="1">
          <mxGeometry x="115" y="1619" width="120" height="80" as="geometry" />
        </mxCell>
        <mxCell id="DjqIR26yRd3ydewBDKT8-14" value="&lt;span style=&quot;font-size: 20px&quot;&gt;线索跟进&lt;/span&gt;" style="ellipse;whiteSpace=wrap;html=1;fillColor=#d5e8d4;strokeColor=#82b366;" parent="1" vertex="1">
          <mxGeometry x="255" y="1617" width="120" height="80" as="geometry" />
        </mxCell>
        <mxCell id="DjqIR26yRd3ydewBDKT8-15" value="" style="endArrow=classic;html=1;" parent="1" target="DjqIR26yRd3ydewBDKT8-12" edge="1">
          <mxGeometry width="50" height="50" relative="1" as="geometry">
            <mxPoint x="64" y="1499" as="sourcePoint" />
            <mxPoint x="-11.271816624644543" y="1638.7859158353453" as="targetPoint" />
          </mxGeometry>
        </mxCell>
        <mxCell id="DjqIR26yRd3ydewBDKT8-16" value="" style="endArrow=classic;html=1;" parent="1" target="DjqIR26yRd3ydewBDKT8-13" edge="1">
          <mxGeometry width="50" height="50" relative="1" as="geometry">
            <mxPoint x="92" y="1504" as="sourcePoint" />
            <mxPoint x="-1.2718166246445435" y="1648.7859158353453" as="targetPoint" />
          </mxGeometry>
        </mxCell>
        <mxCell id="DjqIR26yRd3ydewBDKT8-17" value="" style="endArrow=classic;html=1;" parent="1" target="DjqIR26yRd3ydewBDKT8-14" edge="1">
          <mxGeometry width="50" height="50" relative="1" as="geometry">
            <mxPoint x="114" y="1499" as="sourcePoint" />
            <mxPoint x="8.728183375355457" y="1658.7859158353453" as="targetPoint" />
          </mxGeometry>
        </mxCell>
        <mxCell id="DjqIR26yRd3ydewBDKT8-18" value="&lt;span style=&quot;font-size: 20px&quot;&gt;鹊桥&lt;/span&gt;" style="rounded=0;whiteSpace=wrap;html=1;fillColor=#dae8fc;strokeColor=#6c8ebf;" parent="1" vertex="1">
          <mxGeometry x="-304" y="1411" width="121" height="45" as="geometry" />
        </mxCell>
        <mxCell id="DjqIR26yRd3ydewBDKT8-19" value="&lt;span style=&quot;font-size: 20px&quot;&gt;阿里云本地工商注册&lt;/span&gt;" style="rounded=0;whiteSpace=wrap;html=1;fillColor=#dae8fc;strokeColor=#6c8ebf;" parent="1" vertex="1">
          <mxGeometry x="302" y="1008" width="121" height="45" as="geometry" />
        </mxCell>
        <mxCell id="DjqIR26yRd3ydewBDKT8-20" value="&lt;span style=&quot;font-size: 20px&quot;&gt;生成已支付订单&lt;/span&gt;" style="ellipse;whiteSpace=wrap;html=1;fillColor=#d5e8d4;strokeColor=#82b366;" parent="1" vertex="1">
          <mxGeometry x="578" y="1222" width="120" height="80" as="geometry" />
        </mxCell>
        <mxCell id="DjqIR26yRd3ydewBDKT8-21" value="&lt;font style=&quot;font-size: 20px&quot;&gt;阿里云工商注册&lt;br&gt;企业主用户&lt;/font&gt;" style="shape=umlActor;verticalLabelPosition=bottom;verticalAlign=top;html=1;" parent="1" vertex="1">
          <mxGeometry x="620" y="1008" width="30" height="60" as="geometry" />
        </mxCell>
        <mxCell id="DjqIR26yRd3ydewBDKT8-23" value="" style="endArrow=classic;html=1;" parent="1" target="DjqIR26yRd3ydewBDKT8-20" edge="1">
          <mxGeometry width="50" height="50" relative="1" as="geometry">
            <mxPoint x="640" y="1101" as="sourcePoint" />
            <mxPoint x="466.4100438745695" y="1234.1348673422435" as="targetPoint" />
          </mxGeometry>
        </mxCell>
        <mxCell id="DjqIR26yRd3ydewBDKT8-26" value="企业主/官网" style="shape=umlLifeline;perimeter=lifelinePerimeter;whiteSpace=wrap;html=1;container=1;collapsible=0;recursiveResize=0;outlineConnect=0;fillColor=#b1ddf0;strokeColor=#10739e;" parent="1" vertex="1">
          <mxGeometry x="-570" y="2551" width="100" height="1686" as="geometry" />
        </mxCell>
        <mxCell id="DjqIR26yRd3ydewBDKT8-27" value="" style="html=1;points=[];perimeter=orthogonalPerimeter;shadow=0;labelBackgroundColor=none;strokeColor=#10739e;fillColor=#b1ddf0;" parent="DjqIR26yRd3ydewBDKT8-26" vertex="1">
          <mxGeometry x="45" y="151" width="10" height="80" as="geometry" />
        </mxCell>
        <mxCell id="DjqIR26yRd3ydewBDKT8-37" value="" style="html=1;points=[];perimeter=orthogonalPerimeter;shadow=0;labelBackgroundColor=none;strokeColor=#10739e;fillColor=#b1ddf0;" parent="DjqIR26yRd3ydewBDKT8-26" vertex="1">
          <mxGeometry x="45" y="287" width="10" height="80" as="geometry" />
        </mxCell>
        <mxCell id="DjqIR26yRd3ydewBDKT8-96" value="" style="html=1;points=[];perimeter=orthogonalPerimeter;shadow=0;labelBackgroundColor=none;strokeColor=#10739e;fillColor=#b1ddf0;" parent="DjqIR26yRd3ydewBDKT8-26" vertex="1">
          <mxGeometry x="45" y="464" width="10" height="128" as="geometry" />
        </mxCell>
        <mxCell id="DjqIR26yRd3ydewBDKT8-97" value="根据区域加载商品所有属性&lt;br&gt;以及属性组合对应的所有&lt;br&gt;psku" style="html=1;verticalAlign=bottom;endArrow=block;entryX=0;entryY=0;" parent="DjqIR26yRd3ydewBDKT8-26" target="DjqIR26yRd3ydewBDKT8-96" edge="1">
          <mxGeometry relative="1" as="geometry">
            <mxPoint x="-146" y="464" as="sourcePoint" />
          </mxGeometry>
        </mxCell>
        <mxCell id="DjqIR26yRd3ydewBDKT8-110" value="" style="html=1;points=[];perimeter=orthogonalPerimeter;shadow=0;labelBackgroundColor=none;strokeColor=#10739e;fillColor=#b1ddf0;" parent="DjqIR26yRd3ydewBDKT8-26" vertex="1">
          <mxGeometry x="45" y="645" width="10" height="59" as="geometry" />
        </mxCell>
        <mxCell id="DjqIR26yRd3ydewBDKT8-111" value="获取对应的psku价格" style="html=1;verticalAlign=bottom;endArrow=block;entryX=0;entryY=0;" parent="DjqIR26yRd3ydewBDKT8-26" target="DjqIR26yRd3ydewBDKT8-110" edge="1">
          <mxGeometry relative="1" as="geometry">
            <mxPoint x="-146" y="645" as="sourcePoint" />
          </mxGeometry>
        </mxCell>
        <mxCell id="DjqIR26yRd3ydewBDKT8-112" value="展示spku价格" style="html=1;verticalAlign=bottom;endArrow=open;endSize=8;dashed=1;" parent="DjqIR26yRd3ydewBDKT8-26" edge="1">
          <mxGeometry relative="1" as="geometry">
            <mxPoint x="-149" y="696" as="targetPoint" />
            <mxPoint x="38.999999999999545" y="696" as="sourcePoint" />
          </mxGeometry>
        </mxCell>
        <mxCell id="DjqIR26yRd3ydewBDKT8-28" value="" style="html=1;points=[];perimeter=orthogonalPerimeter;shadow=0;labelBackgroundColor=none;strokeColor=#10739e;fillColor=#b1ddf0;" parent="DjqIR26yRd3ydewBDKT8-26" vertex="1">
          <mxGeometry x="45" y="741" width="10" height="297" as="geometry" />
        </mxCell>
        <mxCell id="DjqIR26yRd3ydewBDKT8-29" value="鹊桥后端" style="shape=umlLifeline;perimeter=lifelinePerimeter;whiteSpace=wrap;html=1;container=1;collapsible=0;recursiveResize=0;outlineConnect=0;fillColor=#b1ddf0;strokeColor=#10739e;" parent="1" vertex="1">
          <mxGeometry x="-209" y="2551" width="100" height="1687" as="geometry" />
        </mxCell>
        <mxCell id="DjqIR26yRd3ydewBDKT8-30" value="" style="html=1;points=[];perimeter=orthogonalPerimeter;shadow=0;labelBackgroundColor=none;strokeColor=#10739e;fillColor=#b1ddf0;" parent="DjqIR26yRd3ydewBDKT8-29" vertex="1">
          <mxGeometry x="45" y="751" width="10" height="275" as="geometry" />
        </mxCell>
        <mxCell id="DjqIR26yRd3ydewBDKT8-31" value="" style="html=1;points=[];perimeter=orthogonalPerimeter;shadow=0;labelBackgroundColor=none;strokeColor=#10739e;fillColor=#b1ddf0;" parent="DjqIR26yRd3ydewBDKT8-29" vertex="1">
          <mxGeometry x="45" y="1450" width="10" height="157" as="geometry" />
        </mxCell>
        <mxCell id="DjqIR26yRd3ydewBDKT8-32" value="" style="html=1;points=[];perimeter=orthogonalPerimeter;fillColor=#b1ddf0;strokeColor=#10739e;" parent="1" vertex="1">
          <mxGeometry x="-730" y="2613" width="10" height="1624" as="geometry" />
        </mxCell>
        <mxCell id="DjqIR26yRd3ydewBDKT8-33" value="企业主" style="shape=umlActor;verticalLabelPosition=bottom;verticalAlign=top;html=1;" parent="1" vertex="1">
          <mxGeometry x="-740" y="2522" width="30" height="60" as="geometry" />
        </mxCell>
        <mxCell id="DjqIR26yRd3ydewBDKT8-34" value="商品中心" style="shape=umlLifeline;perimeter=lifelinePerimeter;whiteSpace=wrap;html=1;container=1;collapsible=0;recursiveResize=0;outlineConnect=0;fillColor=#b1ddf0;strokeColor=#10739e;" parent="1" vertex="1">
          <mxGeometry x="-30" y="2551" width="88" height="1685" as="geometry" />
        </mxCell>
        <mxCell id="DjqIR26yRd3ydewBDKT8-35" value="查看订单管理订单列表" style="html=1;verticalAlign=bottom;endArrow=block;entryX=0;entryY=0;" parent="DjqIR26yRd3ydewBDKT8-34" edge="1">
          <mxGeometry relative="1" as="geometry">
            <mxPoint x="-401" y="654" as="sourcePoint" />
          </mxGeometry>
        </mxCell>
        <mxCell id="DjqIR26yRd3ydewBDKT8-38" value="" style="html=1;points=[];perimeter=orthogonalPerimeter;shadow=0;labelBackgroundColor=none;strokeColor=#10739e;fillColor=#b1ddf0;" parent="DjqIR26yRd3ydewBDKT8-34" vertex="1">
          <mxGeometry x="39" y="309" width="10" height="44" as="geometry" />
        </mxCell>
        <mxCell id="DjqIR26yRd3ydewBDKT8-39" value="获取商品详情" style="html=1;verticalAlign=bottom;endArrow=block;entryX=0;entryY=0;exitX=1.212;exitY=0.21;exitDx=0;exitDy=0;exitPerimeter=0;" parent="DjqIR26yRd3ydewBDKT8-34" source="DjqIR26yRd3ydewBDKT8-94" edge="1">
          <mxGeometry relative="1" as="geometry">
            <mxPoint x="-307" y="309.03999999999905" as="sourcePoint" />
            <mxPoint x="39" y="309.0000000000009" as="targetPoint" />
          </mxGeometry>
        </mxCell>
        <mxCell id="DjqIR26yRd3ydewBDKT8-40" value="返回商品信息" style="html=1;verticalAlign=bottom;endArrow=open;endSize=8;exitX=0;exitY=0.95;dashed=1;" parent="DjqIR26yRd3ydewBDKT8-34" edge="1">
          <mxGeometry relative="1" as="geometry">
            <mxPoint x="-306" y="349" as="targetPoint" />
            <mxPoint x="39" y="350.5499999999993" as="sourcePoint" />
          </mxGeometry>
        </mxCell>
        <mxCell id="DjqIR26yRd3ydewBDKT8-41" value="加载商品详情" style="html=1;verticalAlign=bottom;endArrow=block;entryX=0;entryY=0;" parent="DjqIR26yRd3ydewBDKT8-34" target="DjqIR26yRd3ydewBDKT8-37" edge="1">
          <mxGeometry relative="1" as="geometry">
            <mxPoint x="-686" y="287" as="sourcePoint" />
          </mxGeometry>
        </mxCell>
        <mxCell id="DjqIR26yRd3ydewBDKT8-43" value="" style="html=1;points=[];perimeter=orthogonalPerimeter;shadow=0;labelBackgroundColor=none;strokeColor=#10739e;fillColor=#b1ddf0;" parent="DjqIR26yRd3ydewBDKT8-34" vertex="1">
          <mxGeometry x="39" y="777" width="10" height="25" as="geometry" />
        </mxCell>
        <mxCell id="DjqIR26yRd3ydewBDKT8-89" value="根据渠道获取商品列表" style="html=1;verticalAlign=bottom;endArrow=block;" parent="DjqIR26yRd3ydewBDKT8-34" target="DjqIR26yRd3ydewBDKT8-34" edge="1">
          <mxGeometry relative="1" as="geometry">
            <mxPoint x="-285" y="166" as="sourcePoint" />
            <mxPoint x="35" y="168" as="targetPoint" />
          </mxGeometry>
        </mxCell>
        <mxCell id="DjqIR26yRd3ydewBDKT8-90" value="返回商品列表" style="html=1;verticalAlign=bottom;endArrow=open;endSize=8;dashed=1;entryX=1.282;entryY=0.918;entryDx=0;entryDy=0;entryPerimeter=0;" parent="DjqIR26yRd3ydewBDKT8-34" target="DjqIR26yRd3ydewBDKT8-36" edge="1">
          <mxGeometry relative="1" as="geometry">
            <mxPoint x="-142" y="215.39999999999964" as="targetPoint" />
            <mxPoint x="40.5" y="215.39999999999964" as="sourcePoint" />
          </mxGeometry>
        </mxCell>
        <mxCell id="DjqIR26yRd3ydewBDKT8-91" value="" style="html=1;points=[];perimeter=orthogonalPerimeter;shadow=0;labelBackgroundColor=none;strokeColor=#10739e;fillColor=#b1ddf0;" parent="DjqIR26yRd3ydewBDKT8-34" vertex="1">
          <mxGeometry x="39" y="155" width="10" height="67" as="geometry" />
        </mxCell>
        <mxCell id="DjqIR26yRd3ydewBDKT8-105" value="" style="html=1;points=[];perimeter=orthogonalPerimeter;shadow=0;labelBackgroundColor=none;strokeColor=#10739e;fillColor=#b1ddf0;" parent="DjqIR26yRd3ydewBDKT8-34" vertex="1">
          <mxGeometry x="39" y="484.92999999999984" width="10" height="44" as="geometry" />
        </mxCell>
        <mxCell id="DjqIR26yRd3ydewBDKT8-106" value="根据商品区域以及渠道获取所有psku" style="html=1;verticalAlign=bottom;endArrow=block;entryX=0;entryY=0;exitX=1.212;exitY=0.21;exitDx=0;exitDy=0;exitPerimeter=0;" parent="DjqIR26yRd3ydewBDKT8-34" edge="1">
          <mxGeometry relative="1" as="geometry">
            <mxPoint x="-292.8800000000001" y="483.99999999999955" as="sourcePoint" />
            <mxPoint x="39" y="484.93000000000075" as="targetPoint" />
          </mxGeometry>
        </mxCell>
        <mxCell id="BfFZ2of9FClNFI7ontlP-8" value="" style="html=1;points=[];perimeter=orthogonalPerimeter;shadow=0;labelBackgroundColor=none;strokeColor=#10739e;fillColor=#b1ddf0;" vertex="1" parent="DjqIR26yRd3ydewBDKT8-34">
          <mxGeometry x="39" y="870" width="10" height="25" as="geometry" />
        </mxCell>
        <mxCell id="DjqIR26yRd3ydewBDKT8-44" value="选择点击要购买的商品" style="edgeStyle=orthogonalEdgeStyle;html=1;align=left;spacingLeft=2;endArrow=block;rounded=0;entryX=1;entryY=0;" parent="1" edge="1">
          <mxGeometry relative="1" as="geometry">
            <mxPoint x="-716" y="2801" as="sourcePoint" />
            <Array as="points">
              <mxPoint x="-691" y="2801" />
            </Array>
            <mxPoint x="-711.0000000000009" y="2821" as="targetPoint" />
          </mxGeometry>
        </mxCell>
        <mxCell id="DjqIR26yRd3ydewBDKT8-45" value="根据渠道获取商品列表" style="html=1;verticalAlign=bottom;endArrow=block;exitX=1.1;exitY=0.113;exitDx=0;exitDy=0;exitPerimeter=0;" parent="1" edge="1">
          <mxGeometry relative="1" as="geometry">
            <mxPoint x="-514" y="2716.04" as="sourcePoint" />
            <mxPoint x="-326" y="2716" as="targetPoint" />
          </mxGeometry>
        </mxCell>
        <mxCell id="DjqIR26yRd3ydewBDKT8-46" value="返回商品列表" style="html=1;verticalAlign=bottom;endArrow=open;endSize=8;entryX=1.2;entryY=0.73;entryDx=0;entryDy=0;entryPerimeter=0;dashed=1;" parent="1" source="DjqIR26yRd3ydewBDKT8-86" edge="1">
          <mxGeometry relative="1" as="geometry">
            <mxPoint x="-513" y="2765.3999999999996" as="targetPoint" />
            <mxPoint x="-168" y="2765.3999999999987" as="sourcePoint" />
          </mxGeometry>
        </mxCell>
        <mxCell id="DjqIR26yRd3ydewBDKT8-47" value="查看商品列表" style="html=1;verticalAlign=bottom;endArrow=block;entryX=0;entryY=0;" parent="1" target="DjqIR26yRd3ydewBDKT8-27" edge="1">
          <mxGeometry relative="1" as="geometry">
            <mxPoint x="-720" y="2702.000000000001" as="sourcePoint" />
          </mxGeometry>
        </mxCell>
        <mxCell id="DjqIR26yRd3ydewBDKT8-48" value="展示商品列表" style="html=1;verticalAlign=bottom;endArrow=open;endSize=8;exitX=0;exitY=0.95;dashed=1;" parent="1" source="DjqIR26yRd3ydewBDKT8-27" edge="1">
          <mxGeometry relative="1" as="geometry">
            <mxPoint x="-718" y="2777" as="targetPoint" />
          </mxGeometry>
        </mxCell>
        <mxCell id="DjqIR26yRd3ydewBDKT8-49" value="进入商城" style="edgeStyle=orthogonalEdgeStyle;html=1;align=left;spacingLeft=2;endArrow=block;rounded=0;entryX=1;entryY=0;" parent="1" edge="1">
          <mxGeometry relative="1" as="geometry">
            <mxPoint x="-712" y="2659" as="sourcePoint" />
            <Array as="points">
              <mxPoint x="-687" y="2659" />
            </Array>
            <mxPoint x="-707.0000000000009" y="2679" as="targetPoint" />
          </mxGeometry>
        </mxCell>
        <mxCell id="DjqIR26yRd3ydewBDKT8-50" value="校验psku状态" style="edgeStyle=orthogonalEdgeStyle;html=1;align=left;spacingLeft=2;endArrow=block;rounded=0;entryX=1;entryY=0;" parent="1" edge="1">
          <mxGeometry relative="1" as="geometry">
            <mxPoint x="-151" y="3383.999999999999" as="sourcePoint" />
            <Array as="points">
              <mxPoint x="-126" y="3384" />
            </Array>
            <mxPoint x="-146.0000000000009" y="3404" as="targetPoint" />
          </mxGeometry>
        </mxCell>
        <mxCell id="DjqIR26yRd3ydewBDKT8-51" value="返回订单详情" style="html=1;verticalAlign=bottom;endArrow=open;dashed=1;endSize=8;exitX=0;exitY=0.95;" parent="1" edge="1">
          <mxGeometry relative="1" as="geometry">
            <mxPoint x="-720" y="3573.7499999999964" as="targetPoint" />
            <mxPoint x="-525" y="3573.7499999999964" as="sourcePoint" />
          </mxGeometry>
        </mxCell>
        <mxCell id="DjqIR26yRd3ydewBDKT8-52" value="点击下单" style="html=1;verticalAlign=bottom;endArrow=block;entryX=0;entryY=0;" parent="1" target="DjqIR26yRd3ydewBDKT8-28" edge="1">
          <mxGeometry relative="1" as="geometry">
            <mxPoint x="-721" y="3292" as="sourcePoint" />
          </mxGeometry>
        </mxCell>
        <mxCell id="DjqIR26yRd3ydewBDKT8-53" value="返回订单信息" style="html=1;verticalAlign=bottom;endArrow=open;dashed=1;endSize=8;exitX=0;exitY=0.95;" parent="1" edge="1">
          <mxGeometry relative="1" as="geometry">
            <mxPoint x="-515" y="3564.3500000000004" as="targetPoint" />
            <mxPoint x="-341" y="3564.3500000000004" as="sourcePoint" />
          </mxGeometry>
        </mxCell>
        <mxCell id="DjqIR26yRd3ydewBDKT8-54" value="根据渠道、psku生成订单" style="html=1;verticalAlign=bottom;endArrow=block;entryX=0;entryY=0;" parent="1" edge="1">
          <mxGeometry relative="1" as="geometry">
            <mxPoint x="-515" y="3310" as="sourcePoint" />
            <mxPoint x="-341" y="3310" as="targetPoint" />
          </mxGeometry>
        </mxCell>
        <mxCell id="DjqIR26yRd3ydewBDKT8-55" value="输入密码支付" style="edgeStyle=orthogonalEdgeStyle;html=1;align=left;spacingLeft=2;endArrow=block;rounded=0;entryX=1;entryY=0;" parent="1" edge="1">
          <mxGeometry relative="1" as="geometry">
            <mxPoint x="-714" y="3832" as="sourcePoint" />
            <Array as="points">
              <mxPoint x="-689" y="3832" />
            </Array>
            <mxPoint x="-709.0000000000009" y="3852" as="targetPoint" />
          </mxGeometry>
        </mxCell>
        <mxCell id="DjqIR26yRd3ydewBDKT8-56" value="psku详情属性存储快照" style="edgeStyle=orthogonalEdgeStyle;html=1;align=left;spacingLeft=2;endArrow=block;rounded=0;entryX=1;entryY=0;" parent="1" edge="1">
          <mxGeometry relative="1" as="geometry">
            <mxPoint x="-151" y="3503" as="sourcePoint" />
            <Array as="points">
              <mxPoint x="-126" y="3503" />
            </Array>
            <mxPoint x="-146.0000000000009" y="3523" as="targetPoint" />
          </mxGeometry>
        </mxCell>
        <mxCell id="DjqIR26yRd3ydewBDKT8-57" value="返回商品状态" style="html=1;verticalAlign=bottom;endArrow=open;dashed=1;endSize=8;exitX=0;exitY=0.95;entryX=1.07;entryY=0.478;entryDx=0;entryDy=0;entryPerimeter=0;" parent="1" edge="1">
          <mxGeometry relative="1" as="geometry">
            <mxPoint x="-153.29999999999927" y="3354.8140000000003" as="targetPoint" />
            <mxPoint x="9" y="3353.75" as="sourcePoint" />
          </mxGeometry>
        </mxCell>
        <mxCell id="DjqIR26yRd3ydewBDKT8-58" value="获取商品状态" style="html=1;verticalAlign=bottom;endArrow=block;entryX=0;entryY=0;" parent="1" edge="1">
          <mxGeometry relative="1" as="geometry">
            <mxPoint x="-154" y="3330" as="sourcePoint" />
            <mxPoint x="9" y="3330" as="targetPoint" />
          </mxGeometry>
        </mxCell>
        <mxCell id="DjqIR26yRd3ydewBDKT8-59" value="创建融易算订单+子订单" style="edgeStyle=orthogonalEdgeStyle;html=1;align=left;spacingLeft=2;endArrow=block;rounded=0;entryX=1;entryY=0;" parent="1" edge="1">
          <mxGeometry relative="1" as="geometry">
            <mxPoint x="-151" y="3530" as="sourcePoint" />
            <Array as="points">
              <mxPoint x="-126" y="3530" />
            </Array>
            <mxPoint x="-146.0000000000009" y="3550" as="targetPoint" />
          </mxGeometry>
        </mxCell>
        <mxCell id="DjqIR26yRd3ydewBDKT8-60" value="生成渠道订单" style="edgeStyle=orthogonalEdgeStyle;html=1;align=left;spacingLeft=2;endArrow=block;rounded=0;entryX=1;entryY=0;" parent="1" edge="1">
          <mxGeometry relative="1" as="geometry">
            <mxPoint x="-153" y="4129" as="sourcePoint" />
            <Array as="points">
              <mxPoint x="-128" y="4129" />
            </Array>
            <mxPoint x="-148.0000000000009" y="4149" as="targetPoint" />
          </mxGeometry>
        </mxCell>
        <mxCell id="DjqIR26yRd3ydewBDKT8-62" value="" style="html=1;points=[];perimeter=orthogonalPerimeter;shadow=0;labelBackgroundColor=none;strokeColor=#10739e;fillColor=#b1ddf0;" parent="1" vertex="1">
          <mxGeometry x="-524" y="3656" width="10" height="161" as="geometry" />
        </mxCell>
        <mxCell id="DjqIR26yRd3ydewBDKT8-63" value="" style="html=1;points=[];perimeter=orthogonalPerimeter;shadow=0;labelBackgroundColor=none;strokeColor=#10739e;fillColor=#b1ddf0;" parent="1" vertex="1">
          <mxGeometry x="-163" y="3666" width="10" height="140" as="geometry" />
        </mxCell>
        <mxCell id="DjqIR26yRd3ydewBDKT8-64" value="校验订单状态" style="edgeStyle=orthogonalEdgeStyle;html=1;align=left;spacingLeft=2;endArrow=block;rounded=0;entryX=1;entryY=0;" parent="1" edge="1">
          <mxGeometry relative="1" as="geometry">
            <mxPoint x="-150" y="3679.999999999999" as="sourcePoint" />
            <Array as="points">
              <mxPoint x="-125" y="3680" />
            </Array>
            <mxPoint x="-145.0000000000009" y="3700" as="targetPoint" />
          </mxGeometry>
        </mxCell>
        <mxCell id="DjqIR26yRd3ydewBDKT8-65" value="返回可输入密码支付页面" style="html=1;verticalAlign=bottom;endArrow=open;dashed=1;endSize=8;exitX=0;exitY=0.95;" parent="1" edge="1">
          <mxGeometry relative="1" as="geometry">
            <mxPoint x="-716" y="3808.9999999999964" as="targetPoint" />
            <mxPoint x="-521" y="3808.9999999999964" as="sourcePoint" />
          </mxGeometry>
        </mxCell>
        <mxCell id="DjqIR26yRd3ydewBDKT8-66" value="点击支付" style="html=1;verticalAlign=bottom;endArrow=block;entryX=0;entryY=0;exitX=1.166;exitY=0.375;exitDx=0;exitDy=0;exitPerimeter=0;" parent="1" target="DjqIR26yRd3ydewBDKT8-62" edge="1">
          <mxGeometry relative="1" as="geometry">
            <mxPoint x="-717.3400000000001" y="3658.125" as="sourcePoint" />
          </mxGeometry>
        </mxCell>
        <mxCell id="DjqIR26yRd3ydewBDKT8-67" value="返回支付链接调起支付" style="html=1;verticalAlign=bottom;endArrow=open;dashed=1;endSize=8;" parent="1" edge="1">
          <mxGeometry relative="1" as="geometry">
            <mxPoint x="-514" y="3800" as="targetPoint" />
            <mxPoint x="-158" y="3800" as="sourcePoint" />
          </mxGeometry>
        </mxCell>
        <mxCell id="DjqIR26yRd3ydewBDKT8-68" value="获取支付链接" style="html=1;verticalAlign=bottom;endArrow=block;" parent="1" edge="1" target="DjqIR26yRd3ydewBDKT8-63">
          <mxGeometry relative="1" as="geometry">
            <mxPoint x="-514" y="3674" as="sourcePoint" />
            <mxPoint x="-340" y="3674" as="targetPoint" />
          </mxGeometry>
        </mxCell>
        <mxCell id="DjqIR26yRd3ydewBDKT8-69" value="返回支付链接" style="html=1;verticalAlign=bottom;endArrow=open;dashed=1;endSize=8;exitX=0;exitY=0.95;" parent="1" source="DjqIR26yRd3ydewBDKT8-74" edge="1">
          <mxGeometry relative="1" as="geometry">
            <mxPoint x="-157" y="3775" as="targetPoint" />
          </mxGeometry>
        </mxCell>
        <mxCell id="DjqIR26yRd3ydewBDKT8-70" value="获取支付链接" style="html=1;verticalAlign=bottom;endArrow=block;entryX=0;entryY=0;exitX=0.97;exitY=0.495;exitDx=0;exitDy=0;exitPerimeter=0;" parent="1" target="DjqIR26yRd3ydewBDKT8-74" edge="1">
          <mxGeometry relative="1" as="geometry">
            <mxPoint x="-152.29999999999927" y="3751.4349999999995" as="sourcePoint" />
          </mxGeometry>
        </mxCell>
        <mxCell id="DjqIR26yRd3ydewBDKT8-71" value="创建支付订单" style="edgeStyle=orthogonalEdgeStyle;html=1;align=left;spacingLeft=2;endArrow=block;rounded=0;entryX=1;entryY=0;" parent="1" edge="1">
          <mxGeometry relative="1" as="geometry">
            <mxPoint x="-151" y="3714" as="sourcePoint" />
            <Array as="points">
              <mxPoint x="-126" y="3714" />
            </Array>
            <mxPoint x="-146.0000000000009" y="3734" as="targetPoint" />
          </mxGeometry>
        </mxCell>
        <mxCell id="DjqIR26yRd3ydewBDKT8-72" value="三方支付平台" style="shape=umlLifeline;perimeter=lifelinePerimeter;whiteSpace=wrap;html=1;container=1;collapsible=0;recursiveResize=0;outlineConnect=0;fillColor=#b1ddf0;strokeColor=#10739e;" parent="1" vertex="1">
          <mxGeometry x="109" y="2551" width="110" height="1690" as="geometry" />
        </mxCell>
        <mxCell id="DjqIR26yRd3ydewBDKT8-73" value="查看订单管理订单列表" style="html=1;verticalAlign=bottom;endArrow=block;entryX=0;entryY=0;" parent="DjqIR26yRd3ydewBDKT8-72" edge="1">
          <mxGeometry relative="1" as="geometry">
            <mxPoint x="-401" y="654" as="sourcePoint" />
          </mxGeometry>
        </mxCell>
        <mxCell id="DjqIR26yRd3ydewBDKT8-74" value="" style="html=1;points=[];perimeter=orthogonalPerimeter;shadow=0;labelBackgroundColor=none;strokeColor=#10739e;fillColor=#b1ddf0;" parent="DjqIR26yRd3ydewBDKT8-72" vertex="1">
          <mxGeometry x="50" y="1200" width="10" height="25" as="geometry" />
        </mxCell>
        <mxCell id="DjqIR26yRd3ydewBDKT8-75" value="" style="html=1;points=[];perimeter=orthogonalPerimeter;shadow=0;labelBackgroundColor=none;strokeColor=#10739e;fillColor=#b1ddf0;" parent="DjqIR26yRd3ydewBDKT8-72" vertex="1">
          <mxGeometry x="50" y="1326" width="10" height="47" as="geometry" />
        </mxCell>
        <mxCell id="DjqIR26yRd3ydewBDKT8-76" value="支&lt;br&gt;付&lt;br&gt;结&lt;br&gt;果&lt;br&gt;通&lt;br&gt;知" style="html=1;points=[];perimeter=orthogonalPerimeter;shadow=0;labelBackgroundColor=none;strokeColor=#000000;" parent="DjqIR26yRd3ydewBDKT8-72" vertex="1">
          <mxGeometry x="47" y="1417" width="22" height="100" as="geometry" />
        </mxCell>
        <mxCell id="DjqIR26yRd3ydewBDKT8-77" value="选择支付方式" style="edgeStyle=orthogonalEdgeStyle;html=1;align=left;spacingLeft=2;endArrow=block;rounded=0;entryX=1;entryY=0;" parent="1" edge="1">
          <mxGeometry relative="1" as="geometry">
            <mxPoint x="-716" y="3615" as="sourcePoint" />
            <Array as="points">
              <mxPoint x="-691" y="3615" />
            </Array>
            <mxPoint x="-711.0000000000009" y="3635" as="targetPoint" />
          </mxGeometry>
        </mxCell>
        <mxCell id="DjqIR26yRd3ydewBDKT8-78" value="发起真实支付" style="html=1;verticalAlign=bottom;endArrow=block;entryX=0;entryY=0;" parent="1" target="DjqIR26yRd3ydewBDKT8-75" edge="1">
          <mxGeometry relative="1" as="geometry">
            <mxPoint x="-720.0000000000002" y="3877" as="sourcePoint" />
          </mxGeometry>
        </mxCell>
        <mxCell id="DjqIR26yRd3ydewBDKT8-79" value="返回支付结果" style="html=1;verticalAlign=bottom;endArrow=open;dashed=1;endSize=8;exitX=0;exitY=0.95;" parent="1" source="DjqIR26yRd3ydewBDKT8-75" edge="1">
          <mxGeometry relative="1" as="geometry">
            <mxPoint x="-720" y="3922" as="targetPoint" />
          </mxGeometry>
        </mxCell>
        <mxCell id="DjqIR26yRd3ydewBDKT8-81" value="支付结果通知" style="edgeStyle=orthogonalEdgeStyle;rounded=0;orthogonalLoop=1;jettySize=auto;html=1;entryX=0.848;entryY=0.121;entryDx=0;entryDy=0;entryPerimeter=0;dashed=1;" parent="1" source="DjqIR26yRd3ydewBDKT8-76" target="DjqIR26yRd3ydewBDKT8-31" edge="1">
          <mxGeometry relative="1" as="geometry" />
        </mxCell>
        <mxCell id="DjqIR26yRd3ydewBDKT8-82" value="修改支付订单" style="edgeStyle=orthogonalEdgeStyle;html=1;align=left;spacingLeft=2;endArrow=block;rounded=0;entryX=1;entryY=0;" parent="1" edge="1">
          <mxGeometry relative="1" as="geometry">
            <mxPoint x="-156" y="4034" as="sourcePoint" />
            <Array as="points">
              <mxPoint x="-126" y="4034" />
              <mxPoint x="-126" y="4054" />
            </Array>
            <mxPoint x="-151.00000000000182" y="4054" as="targetPoint" />
          </mxGeometry>
        </mxCell>
        <mxCell id="DjqIR26yRd3ydewBDKT8-83" value="修改订单状态实付金额" style="edgeStyle=orthogonalEdgeStyle;html=1;align=left;spacingLeft=2;endArrow=block;rounded=0;entryX=1;entryY=0;" parent="1" edge="1">
          <mxGeometry relative="1" as="geometry">
            <mxPoint x="-153" y="4062" as="sourcePoint" />
            <Array as="points">
              <mxPoint x="-128" y="4062" />
            </Array>
            <mxPoint x="-148.00000000000182" y="4082" as="targetPoint" />
          </mxGeometry>
        </mxCell>
        <mxCell id="DjqIR26yRd3ydewBDKT8-84" value="修改订单跟进状态为待分配" style="edgeStyle=orthogonalEdgeStyle;html=1;align=left;spacingLeft=2;endArrow=block;rounded=0;entryX=1;entryY=0;" parent="1" edge="1">
          <mxGeometry relative="1" as="geometry">
            <mxPoint x="-153" y="4096" as="sourcePoint" />
            <Array as="points">
              <mxPoint x="-128" y="4096" />
            </Array>
            <mxPoint x="-148.00000000000182" y="4116" as="targetPoint" />
          </mxGeometry>
        </mxCell>
        <mxCell id="DjqIR26yRd3ydewBDKT8-86" value="sme-app" style="shape=umlLifeline;perimeter=lifelinePerimeter;whiteSpace=wrap;html=1;container=1;collapsible=0;recursiveResize=0;outlineConnect=0;fillColor=#b1ddf0;strokeColor=#10739e;" parent="1" vertex="1">
          <mxGeometry x="-380" y="2551" width="100" height="1684" as="geometry" />
        </mxCell>
        <mxCell id="DjqIR26yRd3ydewBDKT8-87" value="" style="html=1;points=[];perimeter=orthogonalPerimeter;shadow=0;labelBackgroundColor=none;strokeColor=#10739e;fillColor=#b1ddf0;" parent="DjqIR26yRd3ydewBDKT8-86" vertex="1">
          <mxGeometry x="45" y="751" width="10" height="282" as="geometry" />
        </mxCell>
        <mxCell id="DjqIR26yRd3ydewBDKT8-36" value="" style="html=1;points=[];perimeter=orthogonalPerimeter;shadow=0;labelBackgroundColor=none;strokeColor=#10739e;fillColor=#b1ddf0;" parent="DjqIR26yRd3ydewBDKT8-86" vertex="1">
          <mxGeometry x="48" y="154" width="10" height="67" as="geometry" />
        </mxCell>
        <mxCell id="DjqIR26yRd3ydewBDKT8-92" value="获取商品详情" style="html=1;verticalAlign=bottom;endArrow=block;exitX=1.1;exitY=0.113;exitDx=0;exitDy=0;exitPerimeter=0;" parent="DjqIR26yRd3ydewBDKT8-86" edge="1">
          <mxGeometry relative="1" as="geometry">
            <mxPoint x="-137" y="300.03999999999996" as="sourcePoint" />
            <mxPoint x="43" y="300" as="targetPoint" />
          </mxGeometry>
        </mxCell>
        <mxCell id="DjqIR26yRd3ydewBDKT8-93" value="返回商品列表" style="html=1;verticalAlign=bottom;endArrow=open;endSize=8;entryX=1.2;entryY=0.73;entryDx=0;entryDy=0;entryPerimeter=0;dashed=1;" parent="DjqIR26yRd3ydewBDKT8-86" edge="1">
          <mxGeometry relative="1" as="geometry">
            <mxPoint x="-136" y="354.39999999999964" as="targetPoint" />
            <mxPoint x="46.5" y="354.39999999999964" as="sourcePoint" />
          </mxGeometry>
        </mxCell>
        <mxCell id="DjqIR26yRd3ydewBDKT8-94" value="" style="html=1;points=[];perimeter=orthogonalPerimeter;shadow=0;labelBackgroundColor=none;strokeColor=#10739e;fillColor=#b1ddf0;" parent="DjqIR26yRd3ydewBDKT8-86" vertex="1">
          <mxGeometry x="45" y="295" width="10" height="66" as="geometry" />
        </mxCell>
        <mxCell id="DjqIR26yRd3ydewBDKT8-100" value="根据区域加载商品所有属性&lt;br&gt;以及属性组合对应的所有&lt;br&gt;psku" style="html=1;verticalAlign=bottom;endArrow=block;exitX=1.1;exitY=0.113;exitDx=0;exitDy=0;exitPerimeter=0;" parent="DjqIR26yRd3ydewBDKT8-86" edge="1">
          <mxGeometry relative="1" as="geometry">
            <mxPoint x="-136.99999999999977" y="479.03999999999996" as="sourcePoint" />
            <mxPoint x="43" y="479" as="targetPoint" />
          </mxGeometry>
        </mxCell>
        <mxCell id="DjqIR26yRd3ydewBDKT8-102" value="" style="html=1;points=[];perimeter=orthogonalPerimeter;shadow=0;labelBackgroundColor=none;strokeColor=#10739e;fillColor=#b1ddf0;" parent="DjqIR26yRd3ydewBDKT8-86" vertex="1">
          <mxGeometry x="45" y="471" width="10" height="119" as="geometry" />
        </mxCell>
        <mxCell id="DjqIR26yRd3ydewBDKT8-42" value="展示商品详情" style="html=1;verticalAlign=bottom;endArrow=open;endSize=8;exitX=0;exitY=0.95;dashed=1;" parent="1" source="DjqIR26yRd3ydewBDKT8-37" target="DjqIR26yRd3ydewBDKT8-32" edge="1">
          <mxGeometry relative="1" as="geometry">
            <mxPoint x="-540.9999999999995" y="2913" as="targetPoint" />
          </mxGeometry>
        </mxCell>
        <mxCell id="DjqIR26yRd3ydewBDKT8-99" value="根据商品下所有psku&lt;br&gt;组合所有可选择属性" style="edgeStyle=orthogonalEdgeStyle;html=1;align=left;spacingLeft=2;endArrow=block;rounded=0;entryX=1;entryY=0;" parent="1" edge="1">
          <mxGeometry relative="1" as="geometry">
            <mxPoint x="-326" y="3096" as="sourcePoint" />
            <Array as="points">
              <mxPoint x="-301" y="3096" />
            </Array>
            <mxPoint x="-321.0000000000007" y="3116" as="targetPoint" />
          </mxGeometry>
        </mxCell>
        <mxCell id="DjqIR26yRd3ydewBDKT8-107" value="返回所有psku" style="html=1;verticalAlign=bottom;endArrow=open;endSize=8;dashed=1;" parent="1" edge="1">
          <mxGeometry relative="1" as="geometry">
            <mxPoint x="-327" y="3073" as="targetPoint" />
            <mxPoint x="9" y="3073" as="sourcePoint" />
          </mxGeometry>
        </mxCell>
        <mxCell id="DjqIR26yRd3ydewBDKT8-101" value="返回所有可选属性&lt;br&gt;以及所有psku" style="html=1;verticalAlign=bottom;endArrow=open;endSize=8;entryX=1.2;entryY=0.73;entryDx=0;entryDy=0;entryPerimeter=0;dashed=1;" parent="1" edge="1">
          <mxGeometry relative="1" as="geometry">
            <mxPoint x="-517.5" y="3132.9999999999995" as="targetPoint" />
            <mxPoint x="-335" y="3132.9999999999995" as="sourcePoint" />
          </mxGeometry>
        </mxCell>
        <mxCell id="DjqIR26yRd3ydewBDKT8-108" value="选择区域" style="edgeStyle=orthogonalEdgeStyle;html=1;align=left;spacingLeft=2;endArrow=block;rounded=0;entryX=1;entryY=0;" parent="1" edge="1">
          <mxGeometry relative="1" as="geometry">
            <mxPoint x="-710.0000000000002" y="2936" as="sourcePoint" />
            <Array as="points">
              <mxPoint x="-685" y="2936" />
            </Array>
            <mxPoint x="-705.0000000000005" y="2956" as="targetPoint" />
          </mxGeometry>
        </mxCell>
        <mxCell id="DjqIR26yRd3ydewBDKT8-98" value="展示所有可选属性" style="html=1;verticalAlign=bottom;endArrow=open;endSize=8;dashed=1;" parent="1" edge="1">
          <mxGeometry relative="1" as="geometry">
            <mxPoint x="-719" y="3137" as="targetPoint" />
            <mxPoint x="-531.0000000000002" y="3137" as="sourcePoint" />
          </mxGeometry>
        </mxCell>
        <mxCell id="DjqIR26yRd3ydewBDKT8-109" value="选择要购买的属性" style="edgeStyle=orthogonalEdgeStyle;html=1;align=left;spacingLeft=2;endArrow=block;rounded=0;entryX=1;entryY=0;" parent="1" edge="1">
          <mxGeometry relative="1" as="geometry">
            <mxPoint x="-710.0000000000002" y="3155" as="sourcePoint" />
            <Array as="points">
              <mxPoint x="-685" y="3155" />
            </Array>
            <mxPoint x="-705.0000000000005" y="3175" as="targetPoint" />
          </mxGeometry>
        </mxCell>
        <mxCell id="BfFZ2of9FClNFI7ontlP-1" value="根据商品下所有psku&lt;br&gt;的属性自主匹配到具体的psku" style="edgeStyle=orthogonalEdgeStyle;html=1;align=left;spacingLeft=2;endArrow=block;rounded=0;entryX=1;entryY=0;" edge="1" parent="1">
          <mxGeometry relative="1" as="geometry">
            <mxPoint x="-514" y="3220" as="sourcePoint" />
            <Array as="points">
              <mxPoint x="-489" y="3220" />
            </Array>
            <mxPoint x="-509.0000000000009" y="3240" as="targetPoint" />
          </mxGeometry>
        </mxCell>
        <mxCell id="BfFZ2of9FClNFI7ontlP-2" value="根据渠道、psku&lt;br&gt;生成订单" style="html=1;verticalAlign=bottom;endArrow=block;" edge="1" parent="1">
          <mxGeometry relative="1" as="geometry">
            <mxPoint x="-325" y="3321" as="sourcePoint" />
            <mxPoint x="-167" y="3321" as="targetPoint" />
          </mxGeometry>
        </mxCell>
        <mxCell id="BfFZ2of9FClNFI7ontlP-4" value="返回订单信息" style="html=1;verticalAlign=bottom;endArrow=open;dashed=1;endSize=8;" edge="1" parent="1">
          <mxGeometry relative="1" as="geometry">
            <mxPoint x="-325" y="3555.0000000000005" as="targetPoint" />
            <mxPoint x="-164" y="3555" as="sourcePoint" />
          </mxGeometry>
        </mxCell>
        <mxCell id="BfFZ2of9FClNFI7ontlP-5" value="商品已下架，请选择其他商品" style="html=1;verticalAlign=bottom;endArrow=open;dashed=1;endSize=8;" edge="1" parent="1">
          <mxGeometry relative="1" as="geometry">
            <mxPoint x="-167" y="3406" as="sourcePoint" />
            <mxPoint x="-720" y="3406" as="targetPoint" />
          </mxGeometry>
        </mxCell>
        <mxCell id="BfFZ2of9FClNFI7ontlP-6" value="返回商品报价" style="html=1;verticalAlign=bottom;endArrow=open;dashed=1;endSize=8;exitX=0;exitY=0.95;entryX=1.07;entryY=0.478;entryDx=0;entryDy=0;entryPerimeter=0;" edge="1" parent="1">
          <mxGeometry relative="1" as="geometry">
            <mxPoint x="-153.29999999999927" y="3445.8140000000003" as="targetPoint" />
            <mxPoint x="9" y="3444.75" as="sourcePoint" />
          </mxGeometry>
        </mxCell>
        <mxCell id="BfFZ2of9FClNFI7ontlP-7" value="获取报价" style="html=1;verticalAlign=bottom;endArrow=block;" edge="1" parent="1">
          <mxGeometry relative="1" as="geometry">
            <mxPoint x="-148" y="3421" as="sourcePoint" />
            <mxPoint x="6" y="3421" as="targetPoint" />
          </mxGeometry>
        </mxCell>
        <mxCell id="BfFZ2of9FClNFI7ontlP-9" value="&lt;br&gt;校验sku价格" style="edgeStyle=orthogonalEdgeStyle;html=1;align=left;spacingLeft=2;endArrow=block;rounded=0;entryX=1;entryY=0;" edge="1" parent="1">
          <mxGeometry relative="1" as="geometry">
            <mxPoint x="-150" y="3468" as="sourcePoint" />
            <Array as="points">
              <mxPoint x="-125" y="3468" />
            </Array>
            <mxPoint x="-145.0000000000009" y="3488" as="targetPoint" />
          </mxGeometry>
        </mxCell>
        <mxCell id="BfFZ2of9FClNFI7ontlP-10" value="商品已失效.请重新选择下单" style="html=1;verticalAlign=bottom;endArrow=open;dashed=1;endSize=8;" edge="1" parent="1">
          <mxGeometry relative="1" as="geometry">
            <mxPoint x="-167" y="3486" as="sourcePoint" />
            <mxPoint x="-720" y="3486" as="targetPoint" />
          </mxGeometry>
        </mxCell>
        <mxCell id="BfFZ2of9FClNFI7ontlP-12" value="录入渠道订单" style="shape=umlFrame;whiteSpace=wrap;html=1;fillColor=#fad7ac;strokeColor=#b46504;dashed=1;shadow=0;dashPattern=1 2;" vertex="1" parent="1">
          <mxGeometry x="792" y="2467" width="809" height="889" as="geometry" />
        </mxCell>
        <mxCell id="BfFZ2of9FClNFI7ontlP-14" value="鹊桥前端" style="shape=umlLifeline;perimeter=lifelinePerimeter;whiteSpace=wrap;html=1;container=1;collapsible=0;recursiveResize=0;outlineConnect=0;fillColor=#b1ddf0;strokeColor=#10739e;" vertex="1" parent="1">
          <mxGeometry x="1090" y="2385" width="100" height="972" as="geometry" />
        </mxCell>
        <mxCell id="BfFZ2of9FClNFI7ontlP-54" value="" style="html=1;points=[];perimeter=orthogonalPerimeter;fillColor=#b1ddf0;strokeColor=#10739e;" vertex="1" parent="BfFZ2of9FClNFI7ontlP-14">
          <mxGeometry x="45" y="188" width="10" height="80" as="geometry" />
        </mxCell>
        <mxCell id="BfFZ2of9FClNFI7ontlP-20" value="鹊桥后端" style="shape=umlLifeline;perimeter=lifelinePerimeter;whiteSpace=wrap;html=1;container=1;collapsible=0;recursiveResize=0;outlineConnect=0;fillColor=#b1ddf0;strokeColor=#10739e;" vertex="1" parent="1">
          <mxGeometry x="1274" y="2385" width="100" height="969" as="geometry" />
        </mxCell>
        <mxCell id="BfFZ2of9FClNFI7ontlP-47" value="" style="html=1;points=[];perimeter=orthogonalPerimeter;fillColor=#b1ddf0;strokeColor=#10739e;" vertex="1" parent="BfFZ2of9FClNFI7ontlP-20">
          <mxGeometry x="45.99000000000001" y="188.2" width="10" height="80" as="geometry" />
        </mxCell>
        <mxCell id="BfFZ2of9FClNFI7ontlP-48" value="根据渠道、区域获取spu列表" style="html=1;verticalAlign=bottom;endArrow=block;entryX=0;entryY=0;" edge="1" target="BfFZ2of9FClNFI7ontlP-47" parent="BfFZ2of9FClNFI7ontlP-20">
          <mxGeometry relative="1" as="geometry">
            <mxPoint x="-133" y="188" as="sourcePoint" />
          </mxGeometry>
        </mxCell>
        <mxCell id="BfFZ2of9FClNFI7ontlP-66" value="" style="html=1;points=[];perimeter=orthogonalPerimeter;shadow=0;labelBackgroundColor=none;strokeColor=#10739e;fillColor=#b1ddf0;" vertex="1" parent="BfFZ2of9FClNFI7ontlP-20">
          <mxGeometry x="45.99000000000001" y="361" width="10" height="119" as="geometry" />
        </mxCell>
        <mxCell id="BfFZ2of9FClNFI7ontlP-119" value="" style="html=1;points=[];perimeter=orthogonalPerimeter;shadow=0;labelBackgroundColor=none;strokeColor=#10739e;fillColor=#b1ddf0;" vertex="1" parent="BfFZ2of9FClNFI7ontlP-20">
          <mxGeometry x="45" y="630" width="10" height="275" as="geometry" />
        </mxCell>
        <mxCell id="BfFZ2of9FClNFI7ontlP-23" value="" style="html=1;points=[];perimeter=orthogonalPerimeter;fillColor=#b1ddf0;strokeColor=#10739e;" vertex="1" parent="1">
          <mxGeometry x="930" y="2447" width="10" height="909" as="geometry" />
        </mxCell>
        <mxCell id="BfFZ2of9FClNFI7ontlP-24" value="销售运营" style="shape=umlActor;verticalLabelPosition=bottom;verticalAlign=top;html=1;" vertex="1" parent="1">
          <mxGeometry x="920" y="2356" width="30" height="60" as="geometry" />
        </mxCell>
        <mxCell id="BfFZ2of9FClNFI7ontlP-25" value="商品中心" style="shape=umlLifeline;perimeter=lifelinePerimeter;whiteSpace=wrap;html=1;container=1;collapsible=0;recursiveResize=0;outlineConnect=0;fillColor=#b1ddf0;strokeColor=#10739e;" vertex="1" parent="1">
          <mxGeometry x="1453" y="2385" width="88" height="971" as="geometry" />
        </mxCell>
        <mxCell id="BfFZ2of9FClNFI7ontlP-26" value="查看订单管理订单列表" style="html=1;verticalAlign=bottom;endArrow=block;entryX=0;entryY=0;" edge="1" parent="BfFZ2of9FClNFI7ontlP-25">
          <mxGeometry relative="1" as="geometry">
            <mxPoint x="-401" y="654" as="sourcePoint" />
          </mxGeometry>
        </mxCell>
        <mxCell id="BfFZ2of9FClNFI7ontlP-51" value="" style="html=1;points=[];perimeter=orthogonalPerimeter;" vertex="1" parent="BfFZ2of9FClNFI7ontlP-25">
          <mxGeometry x="39" y="203" width="10" height="56" as="geometry" />
        </mxCell>
        <mxCell id="BfFZ2of9FClNFI7ontlP-63" value="" style="html=1;points=[];perimeter=orthogonalPerimeter;shadow=0;labelBackgroundColor=none;strokeColor=#10739e;fillColor=#b1ddf0;" vertex="1" parent="BfFZ2of9FClNFI7ontlP-25">
          <mxGeometry x="40" y="372" width="10" height="44" as="geometry" />
        </mxCell>
        <mxCell id="BfFZ2of9FClNFI7ontlP-120" value="" style="html=1;points=[];perimeter=orthogonalPerimeter;shadow=0;labelBackgroundColor=none;strokeColor=#10739e;fillColor=#b1ddf0;" vertex="1" parent="BfFZ2of9FClNFI7ontlP-25">
          <mxGeometry x="40" y="694" width="10" height="25" as="geometry" />
        </mxCell>
        <mxCell id="BfFZ2of9FClNFI7ontlP-121" value="" style="html=1;points=[];perimeter=orthogonalPerimeter;shadow=0;labelBackgroundColor=none;strokeColor=#10739e;fillColor=#b1ddf0;" vertex="1" parent="BfFZ2of9FClNFI7ontlP-25">
          <mxGeometry x="37" y="771" width="10" height="25" as="geometry" />
        </mxCell>
        <mxCell id="BfFZ2of9FClNFI7ontlP-45" value="点击录入订单" style="edgeStyle=orthogonalEdgeStyle;html=1;align=left;spacingLeft=2;endArrow=block;rounded=0;entryX=1;entryY=0;" edge="1" parent="1">
          <mxGeometry relative="1" as="geometry">
            <mxPoint x="940" y="2502" as="sourcePoint" />
            <Array as="points">
              <mxPoint x="965" y="2502" />
            </Array>
            <mxPoint x="945" y="2522" as="targetPoint" />
          </mxGeometry>
        </mxCell>
        <mxCell id="BfFZ2of9FClNFI7ontlP-46" value="选择渠道、区域、渠道订单编号&lt;br&gt;以及其他信息" style="edgeStyle=orthogonalEdgeStyle;html=1;align=left;spacingLeft=2;endArrow=block;rounded=0;entryX=1;entryY=0;" edge="1" parent="1">
          <mxGeometry relative="1" as="geometry">
            <mxPoint x="942" y="2537" as="sourcePoint" />
            <Array as="points">
              <mxPoint x="967" y="2537" />
            </Array>
            <mxPoint x="947" y="2557" as="targetPoint" />
          </mxGeometry>
        </mxCell>
        <mxCell id="BfFZ2of9FClNFI7ontlP-49" value="返回spu列表" style="html=1;verticalAlign=bottom;endArrow=open;dashed=1;endSize=8;exitX=0;exitY=0.95;" edge="1" source="BfFZ2of9FClNFI7ontlP-47" parent="1">
          <mxGeometry relative="1" as="geometry">
            <mxPoint x="1148" y="2649" as="targetPoint" />
          </mxGeometry>
        </mxCell>
        <mxCell id="BfFZ2of9FClNFI7ontlP-53" value="返回spu列表" style="html=1;verticalAlign=bottom;endArrow=open;dashed=1;endSize=8;exitX=0;exitY=0.95;" edge="1" source="BfFZ2of9FClNFI7ontlP-51" parent="1">
          <mxGeometry relative="1" as="geometry">
            <mxPoint x="1329.9899999999998" y="2641.2" as="targetPoint" />
          </mxGeometry>
        </mxCell>
        <mxCell id="BfFZ2of9FClNFI7ontlP-52" value="获取spu列表" style="html=1;verticalAlign=bottom;endArrow=block;entryX=0;entryY=0;" edge="1" target="BfFZ2of9FClNFI7ontlP-51" parent="1">
          <mxGeometry relative="1" as="geometry">
            <mxPoint x="1329.9899999999998" y="2588.2" as="sourcePoint" />
          </mxGeometry>
        </mxCell>
        <mxCell id="BfFZ2of9FClNFI7ontlP-59" value="返回spu列表" style="html=1;verticalAlign=bottom;endArrow=open;dashed=1;endSize=8;exitX=-0.155;exitY=0.888;exitDx=0;exitDy=0;exitPerimeter=0;" edge="1" parent="1" source="BfFZ2of9FClNFI7ontlP-54">
          <mxGeometry relative="1" as="geometry">
            <mxPoint x="942" y="2643" as="targetPoint" />
            <mxPoint x="1113.9899999999998" y="2643.2" as="sourcePoint" />
          </mxGeometry>
        </mxCell>
        <mxCell id="BfFZ2of9FClNFI7ontlP-60" value="选择spu" style="edgeStyle=orthogonalEdgeStyle;html=1;align=left;spacingLeft=2;endArrow=block;rounded=0;entryX=1;entryY=0;" edge="1" parent="1">
          <mxGeometry relative="1" as="geometry">
            <mxPoint x="944" y="2668" as="sourcePoint" />
            <Array as="points">
              <mxPoint x="969" y="2668" />
            </Array>
            <mxPoint x="949" y="2688" as="targetPoint" />
          </mxGeometry>
        </mxCell>
        <mxCell id="BfFZ2of9FClNFI7ontlP-61" value="" style="html=1;points=[];perimeter=orthogonalPerimeter;shadow=0;labelBackgroundColor=none;strokeColor=#10739e;fillColor=#b1ddf0;" vertex="1" parent="1">
          <mxGeometry x="1138" y="2739" width="10" height="128" as="geometry" />
        </mxCell>
        <mxCell id="BfFZ2of9FClNFI7ontlP-62" value="选择spu触发" style="html=1;verticalAlign=bottom;endArrow=block;entryX=0;entryY=0;" edge="1" parent="1" target="BfFZ2of9FClNFI7ontlP-61">
          <mxGeometry relative="1" as="geometry">
            <mxPoint x="947" y="2739" as="sourcePoint" />
          </mxGeometry>
        </mxCell>
        <mxCell id="BfFZ2of9FClNFI7ontlP-64" value="根据spu区域以及&lt;br&gt;渠道获取所有psku" style="html=1;verticalAlign=bottom;endArrow=block;" edge="1" parent="1" target="BfFZ2of9FClNFI7ontlP-25">
          <mxGeometry relative="1" as="geometry">
            <mxPoint x="1335" y="2760" as="sourcePoint" />
            <mxPoint x="1672" y="2759.9300000000007" as="targetPoint" />
          </mxGeometry>
        </mxCell>
        <mxCell id="BfFZ2of9FClNFI7ontlP-65" value="根据区域加载商品所有属性&lt;br&gt;以及属性组合对应的所有&lt;br&gt;psku" style="html=1;verticalAlign=bottom;endArrow=block;exitX=1.1;exitY=0.113;exitDx=0;exitDy=0;exitPerimeter=0;" edge="1" parent="1">
          <mxGeometry relative="1" as="geometry">
            <mxPoint x="1146" y="2754.04" as="sourcePoint" />
            <mxPoint x="1317" y="2754" as="targetPoint" />
          </mxGeometry>
        </mxCell>
        <mxCell id="BfFZ2of9FClNFI7ontlP-67" value="根据商品下所有psku&lt;br&gt;组合所有可选择属性" style="edgeStyle=orthogonalEdgeStyle;html=1;align=left;spacingLeft=2;endArrow=block;rounded=0;entryX=1;entryY=0;" edge="1" parent="1">
          <mxGeometry relative="1" as="geometry">
            <mxPoint x="1337" y="2820" as="sourcePoint" />
            <Array as="points">
              <mxPoint x="1362" y="2820" />
            </Array>
            <mxPoint x="1341.999999999999" y="2840" as="targetPoint" />
          </mxGeometry>
        </mxCell>
        <mxCell id="BfFZ2of9FClNFI7ontlP-68" value="返回所有psku" style="html=1;verticalAlign=bottom;endArrow=open;endSize=8;dashed=1;" edge="1" parent="1" source="BfFZ2of9FClNFI7ontlP-25">
          <mxGeometry relative="1" as="geometry">
            <mxPoint x="1336" y="2797" as="targetPoint" />
            <mxPoint x="1672" y="2797" as="sourcePoint" />
          </mxGeometry>
        </mxCell>
        <mxCell id="BfFZ2of9FClNFI7ontlP-69" value="返回所有可选属性&lt;br&gt;以及所有psku" style="html=1;verticalAlign=bottom;endArrow=open;endSize=8;entryX=1.2;entryY=0.73;entryDx=0;entryDy=0;entryPerimeter=0;dashed=1;" edge="1" parent="1">
          <mxGeometry relative="1" as="geometry">
            <mxPoint x="1149.5" y="2856.9999999999995" as="targetPoint" />
            <mxPoint x="1319" y="2857" as="sourcePoint" />
          </mxGeometry>
        </mxCell>
        <mxCell id="BfFZ2of9FClNFI7ontlP-70" value="展示所有可选属性" style="html=1;verticalAlign=bottom;endArrow=open;endSize=8;dashed=1;" edge="1" parent="1">
          <mxGeometry relative="1" as="geometry">
            <mxPoint x="944" y="2861" as="targetPoint" />
            <mxPoint x="1132" y="2861" as="sourcePoint" />
          </mxGeometry>
        </mxCell>
        <mxCell id="BfFZ2of9FClNFI7ontlP-71" value="" style="html=1;points=[];perimeter=orthogonalPerimeter;shadow=0;labelBackgroundColor=none;strokeColor=#10739e;fillColor=#b1ddf0;" vertex="1" parent="1">
          <mxGeometry x="1134" y="2923" width="10" height="59" as="geometry" />
        </mxCell>
        <mxCell id="BfFZ2of9FClNFI7ontlP-72" value="获取对应的psku价格" style="html=1;verticalAlign=bottom;endArrow=block;entryX=0;entryY=0;" edge="1" parent="1" target="BfFZ2of9FClNFI7ontlP-71">
          <mxGeometry relative="1" as="geometry">
            <mxPoint x="943" y="2923" as="sourcePoint" />
          </mxGeometry>
        </mxCell>
        <mxCell id="BfFZ2of9FClNFI7ontlP-73" value="展示spku价格" style="html=1;verticalAlign=bottom;endArrow=open;endSize=8;dashed=1;" edge="1" parent="1">
          <mxGeometry relative="1" as="geometry">
            <mxPoint x="940" y="2974" as="targetPoint" />
            <mxPoint x="1127.9999999999995" y="2974" as="sourcePoint" />
          </mxGeometry>
        </mxCell>
        <mxCell id="BfFZ2of9FClNFI7ontlP-74" value="选择属性" style="edgeStyle=orthogonalEdgeStyle;html=1;align=left;spacingLeft=2;endArrow=block;rounded=0;entryX=1;entryY=0;" edge="1" parent="1">
          <mxGeometry relative="1" as="geometry">
            <mxPoint x="944" y="2882" as="sourcePoint" />
            <Array as="points">
              <mxPoint x="969" y="2882" />
            </Array>
            <mxPoint x="948.9999999999995" y="2902" as="targetPoint" />
          </mxGeometry>
        </mxCell>
        <mxCell id="BfFZ2of9FClNFI7ontlP-75" value="根据商品下所有psku&lt;br&gt;的属性自主匹配到具体的psku" style="edgeStyle=orthogonalEdgeStyle;html=1;align=left;spacingLeft=2;endArrow=block;rounded=0;entryX=1;entryY=0;" edge="1" parent="1">
          <mxGeometry relative="1" as="geometry">
            <mxPoint x="1145" y="2939" as="sourcePoint" />
            <Array as="points">
              <mxPoint x="1170" y="2939" />
            </Array>
            <mxPoint x="1149.999999999999" y="2959" as="targetPoint" />
          </mxGeometry>
        </mxCell>
        <mxCell id="BfFZ2of9FClNFI7ontlP-118" value="" style="html=1;points=[];perimeter=orthogonalPerimeter;shadow=0;labelBackgroundColor=none;strokeColor=#10739e;fillColor=#b1ddf0;" vertex="1" parent="1">
          <mxGeometry x="1136" y="3005" width="10" height="297" as="geometry" />
        </mxCell>
        <mxCell id="BfFZ2of9FClNFI7ontlP-122" value="校验psku状态" style="edgeStyle=orthogonalEdgeStyle;html=1;align=left;spacingLeft=2;endArrow=block;rounded=0;entryX=1;entryY=0;" edge="1" parent="1">
          <mxGeometry relative="1" as="geometry">
            <mxPoint x="1337" y="3119.999999999999" as="sourcePoint" />
            <Array as="points">
              <mxPoint x="1362" y="3120" />
            </Array>
            <mxPoint x="1341.999999999999" y="3140" as="targetPoint" />
          </mxGeometry>
        </mxCell>
        <mxCell id="BfFZ2of9FClNFI7ontlP-123" value="订单进入待分配/跟进中列表" style="html=1;verticalAlign=bottom;endArrow=open;dashed=1;endSize=8;exitX=0;exitY=0.95;" edge="1" parent="1">
          <mxGeometry relative="1" as="geometry">
            <mxPoint x="941" y="3286.7499999999964" as="targetPoint" />
            <mxPoint x="1136" y="3286.7499999999964" as="sourcePoint" />
          </mxGeometry>
        </mxCell>
        <mxCell id="BfFZ2of9FClNFI7ontlP-124" value="点击下单" style="html=1;verticalAlign=bottom;endArrow=block;entryX=0;entryY=0;" edge="1" parent="1" target="BfFZ2of9FClNFI7ontlP-118">
          <mxGeometry relative="1" as="geometry">
            <mxPoint x="940" y="3005" as="sourcePoint" />
          </mxGeometry>
        </mxCell>
        <mxCell id="BfFZ2of9FClNFI7ontlP-125" value="返回结果" style="html=1;verticalAlign=bottom;endArrow=open;dashed=1;endSize=8;exitX=0;exitY=0.95;" edge="1" parent="1">
          <mxGeometry relative="1" as="geometry">
            <mxPoint x="1146" y="3277.3500000000004" as="targetPoint" />
            <mxPoint x="1320" y="3277.3500000000004" as="sourcePoint" />
          </mxGeometry>
        </mxCell>
        <mxCell id="BfFZ2of9FClNFI7ontlP-126" value="根据渠道、多个psku生成订单" style="html=1;verticalAlign=bottom;endArrow=block;entryX=0;entryY=0;" edge="1" parent="1">
          <mxGeometry relative="1" as="geometry">
            <mxPoint x="1146" y="3023" as="sourcePoint" />
            <mxPoint x="1320" y="3023" as="targetPoint" />
          </mxGeometry>
        </mxCell>
        <mxCell id="BfFZ2of9FClNFI7ontlP-127" value="psku详情属性存储快照" style="edgeStyle=orthogonalEdgeStyle;html=1;align=left;spacingLeft=2;endArrow=block;rounded=0;entryX=1;entryY=0;" edge="1" parent="1">
          <mxGeometry relative="1" as="geometry">
            <mxPoint x="1337" y="3223" as="sourcePoint" />
            <Array as="points">
              <mxPoint x="1362" y="3223" />
            </Array>
            <mxPoint x="1341.999999999999" y="3243" as="targetPoint" />
          </mxGeometry>
        </mxCell>
        <mxCell id="BfFZ2of9FClNFI7ontlP-128" value="返回商品状态" style="html=1;verticalAlign=bottom;endArrow=open;dashed=1;endSize=8;exitX=0;exitY=0.95;entryX=1.07;entryY=0.478;entryDx=0;entryDy=0;entryPerimeter=0;" edge="1" parent="1">
          <mxGeometry relative="1" as="geometry">
            <mxPoint x="1334.7000000000007" y="3104.8140000000003" as="targetPoint" />
            <mxPoint x="1497" y="3103.75" as="sourcePoint" />
          </mxGeometry>
        </mxCell>
        <mxCell id="BfFZ2of9FClNFI7ontlP-129" value="获取商品状态" style="html=1;verticalAlign=bottom;endArrow=block;entryX=0;entryY=0;" edge="1" parent="1">
          <mxGeometry relative="1" as="geometry">
            <mxPoint x="1334" y="3079" as="sourcePoint" />
            <mxPoint x="1497" y="3079" as="targetPoint" />
          </mxGeometry>
        </mxCell>
        <mxCell id="BfFZ2of9FClNFI7ontlP-130" value="创建融易算订单+子订单" style="edgeStyle=orthogonalEdgeStyle;html=1;align=left;spacingLeft=2;endArrow=block;rounded=0;entryX=1;entryY=0;" edge="1" parent="1">
          <mxGeometry relative="1" as="geometry">
            <mxPoint x="1337" y="3250" as="sourcePoint" />
            <Array as="points">
              <mxPoint x="1362" y="3250" />
            </Array>
            <mxPoint x="1341.999999999999" y="3270" as="targetPoint" />
          </mxGeometry>
        </mxCell>
        <mxCell id="BfFZ2of9FClNFI7ontlP-134" value="商品已下架，请选择其他商品" style="html=1;verticalAlign=bottom;endArrow=open;dashed=1;endSize=8;exitX=-0.11;exitY=0.384;exitDx=0;exitDy=0;exitPerimeter=0;" edge="1" parent="1" source="BfFZ2of9FClNFI7ontlP-119">
          <mxGeometry relative="1" as="geometry">
            <mxPoint x="1494" y="3119" as="sourcePoint" />
            <mxPoint x="941" y="3119" as="targetPoint" />
          </mxGeometry>
        </mxCell>
        <mxCell id="BfFZ2of9FClNFI7ontlP-135" value="返回商品报价" style="html=1;verticalAlign=bottom;endArrow=open;dashed=1;endSize=8;exitX=0;exitY=0.95;entryX=1.07;entryY=0.478;entryDx=0;entryDy=0;entryPerimeter=0;" edge="1" parent="1">
          <mxGeometry relative="1" as="geometry">
            <mxPoint x="1334.7000000000007" y="3181.8140000000003" as="targetPoint" />
            <mxPoint x="1497" y="3180.75" as="sourcePoint" />
          </mxGeometry>
        </mxCell>
        <mxCell id="BfFZ2of9FClNFI7ontlP-136" value="获取报价" style="html=1;verticalAlign=bottom;endArrow=block;" edge="1" parent="1">
          <mxGeometry relative="1" as="geometry">
            <mxPoint x="1340" y="3157" as="sourcePoint" />
            <mxPoint x="1494" y="3157" as="targetPoint" />
          </mxGeometry>
        </mxCell>
        <mxCell id="BfFZ2of9FClNFI7ontlP-137" value="&lt;br&gt;校验sku价格" style="edgeStyle=orthogonalEdgeStyle;html=1;align=left;spacingLeft=2;endArrow=block;rounded=0;entryX=1;entryY=0;" edge="1" parent="1">
          <mxGeometry relative="1" as="geometry">
            <mxPoint x="1338" y="3188" as="sourcePoint" />
            <Array as="points">
              <mxPoint x="1363" y="3188" />
            </Array>
            <mxPoint x="1342.999999999999" y="3208" as="targetPoint" />
          </mxGeometry>
        </mxCell>
        <mxCell id="BfFZ2of9FClNFI7ontlP-138" value="商品已失效.请重新选择下单" style="html=1;verticalAlign=bottom;endArrow=open;dashed=1;endSize=8;exitX=-0.222;exitY=0.675;exitDx=0;exitDy=0;exitPerimeter=0;" edge="1" parent="1" source="BfFZ2of9FClNFI7ontlP-119">
          <mxGeometry relative="1" as="geometry">
            <mxPoint x="1494" y="3199" as="sourcePoint" />
            <mxPoint x="941" y="3199" as="targetPoint" />
          </mxGeometry>
        </mxCell>
        <mxCell id="BfFZ2of9FClNFI7ontlP-139" value="校验订单编号防重" style="edgeStyle=orthogonalEdgeStyle;html=1;align=left;spacingLeft=2;endArrow=block;rounded=0;entryX=1;entryY=0;" edge="1" parent="1">
          <mxGeometry relative="1" as="geometry">
            <mxPoint x="1334" y="3035" as="sourcePoint" />
            <Array as="points">
              <mxPoint x="1359" y="3035" />
            </Array>
            <mxPoint x="1338.9999999999995" y="3055" as="targetPoint" />
          </mxGeometry>
        </mxCell>
        <mxCell id="BfFZ2of9FClNFI7ontlP-140" value="选择区域触发" style="html=1;verticalAlign=bottom;endArrow=block;entryX=0;entryY=0;" edge="1" parent="1">
          <mxGeometry relative="1" as="geometry">
            <mxPoint x="945" y="2582" as="sourcePoint" />
            <mxPoint x="1136" y="2582" as="targetPoint" />
          </mxGeometry>
        </mxCell>
      </root>
    </mxGraphModel>
  </diagram>
</mxfile>
